<?xml version="1.0" encoding="UTF-8" standalone="no"?>
<!-- Generator: Adobe Illustrator 19.0.0, SVG Export Plug-In . SVG Version: 6.00 Build 0)  -->

<svg
   xmlns:dc="http://purl.org/dc/elements/1.1/"
   xmlns:cc="http://creativecommons.org/ns#"
   xmlns:rdf="http://www.w3.org/1999/02/22-rdf-syntax-ns#"
   xmlns:svg="http://www.w3.org/2000/svg"
   xmlns="http://www.w3.org/2000/svg"
   xmlns:sodipodi="http://sodipodi.sourceforge.net/DTD/sodipodi-0.dtd"
   xmlns:inkscape="http://www.inkscape.org/namespaces/inkscape"
   version="1.1"
   id="Capa_1"
   x="0px"
   y="0px"
   viewBox="0 0 56 56"
   style="enable-background:new 0 0 56 56;"
   xml:space="preserve"
   sodipodi:docname="app.svg"
   inkscape:version="0.92.4 (5da689c313, 2019-01-14)"><metadata
   id="metadata906"><rdf:RDF><cc:Work
       rdf:about=""><dc:format>image/svg+xml</dc:format><dc:type
         rdf:resource="http://purl.org/dc/dcmitype/StillImage" /></cc:Work></rdf:RDF></metadata><defs
   id="defs904" /><sodipodi:namedview
   pagecolor="#ffffff"
   bordercolor="#666666"
   borderopacity="1"
   objecttolerance="10"
   gridtolerance="10"
   guidetolerance="10"
   inkscape:pageopacity="0"
   inkscape:pageshadow="2"
   inkscape:window-width="1920"
   inkscape:window-height="1027"
   id="namedview902"
   showgrid="false"
   inkscape:zoom="15.089286"
   inkscape:cx="28"
   inkscape:cy="17.39645"
   inkscape:window-x="-8"
   inkscape:window-y="-8"
   inkscape:window-maximized="1"
   inkscape:current-layer="g869" />
<g
   id="g869">
	<path
   d="M22.66,0H3.34C1.498,0,0,1.498,0,3.34v19.32C0,24.502,1.498,26,3.34,26h19.32c1.842,0,3.34-1.498,3.34-3.34V3.34   C26,1.498,24.502,0,22.66,0z M24,22.66c0,0.739-0.601,1.34-1.34,1.34H3.34C2.601,24,2,23.399,2,22.66V3.34C2,2.601,2.601,2,3.34,2   h19.32C23.399,2,24,2.601,24,3.34V22.66z"
   id="path861" />
	<path
   d="M52.66,0H33.34C31.498,0,30,1.498,30,3.34v19.32c0,1.842,1.498,3.34,3.34,3.34h19.32c1.842,0,3.34-1.498,3.34-3.34V3.34   C56,1.498,54.502,0,52.66,0z M54,22.66c0,0.739-0.601,1.34-1.34,1.34H33.34C32.601,24,32,23.399,32,22.66V3.34   C32,2.601,32.601,2,33.34,2h19.32C53.399,2,54,2.601,54,3.34V22.66z"
   id="path863"
   style="fill:#000000;fill-opacity:1" />
	<path
   d="M22.66,30H3.34C1.498,30,0,31.498,0,33.34v19.32C0,54.502,1.498,56,3.34,56h19.32c1.842,0,3.34-1.498,3.34-3.34V33.34   C26,31.498,24.502,30,22.66,30z M24,52.66c0,0.739-0.601,1.34-1.34,1.34H3.34C2.601,54,2,53.399,2,52.66V33.34   C2,32.601,2.601,32,3.34,32h19.32c0.739,0,1.34,0.601,1.34,1.34V52.66z"
   id="path865" />
	
<path
   inkscape:connector-curvature="0"
   d="m 52.604379,30.143196 h -19.32 c -1.842,0 -3.34,1.498 -3.34,3.34 v 19.32 c 0,1.842 1.498,3.34 3.34,3.34 h 19.32 c 1.842,0 3.34,-1.498 3.34,-3.34 v -19.32 c 0,-1.842 -1.498,-3.34 -3.34,-3.34 z m 1.34,22.66 c 0,0.739 -0.601,1.34 -1.34,1.34 h -19.32 c -0.739,0 -1.34,-0.601 -1.34,-1.34 v -19.32 c 0,-0.739 0.601,-1.34 1.34,-1.34 h 19.32 c 0.739,0 1.34,0.601 1.34,1.34 z"
   id="path865-4" /></g>
<g
   id="g871">
</g>
<g
   id="g873">
</g>
<g
   id="g875">
</g>
<g
   id="g877">
</g>
<g
   id="g879">
</g>
<g
   id="g881">
</g>
<g
   id="g883">
</g>
<g
   id="g885">
</g>
<g
   id="g887">
</g>
<g
   id="g889">
</g>
<g
   id="g891">
</g>
<g
   id="g893">
</g>
<g
   id="g895">
</g>
<g
   id="g897">
</g>
<g
   id="g899">
</g>
</svg>