<?xml version="1.0" ?><svg style="enable-background:new 0 0 64 64;" version="1.1" viewBox="0 0 64 64" xml:space="preserve" xmlns="http://www.w3.org/2000/svg" xmlns:xlink="http://www.w3.org/1999/xlink"><style type="text/css">
	.st0{display:none;}
	.st1{fill:none;stroke:#000000;stroke-width:2;stroke-miterlimit:10;}
</style><g class="st0" id="Слой_1"/><g id="Слой_2"><g><g><line class="st1" x1="0" x2="64" y1="63" y2="63"/><rect class="st1" height="4" width="24" x="4" y="59"/><rect class="st1" height="46" width="4" x="13" y="13"/><g><g><rect class="st1" height="3" width="4" x="6" y="46"/></g><g><rect class="st1" height="3" width="4" x="6" y="43"/></g><g><rect class="st1" height="3" width="4" x="6" y="40"/></g><g><rect class="st1" height="3" width="4" x="6" y="37"/></g><g><rect class="st1" height="3" width="4" x="6" y="34"/></g></g><polygon class="st1" points="62,13 2,13 3,9 61,9    "/><line class="st1" x1="55.2" x2="17" y1="9" y2="3"/><line class="st1" x1="13" x2="8" y1="3" y2="9"/><line class="st1" x1="8" x2="8" y1="13" y2="34"/><path class="st1" d="M15,1L15,1c1.1,0,2,0.9,2,2v6h-4V3C13,1.9,13.9,1,15,1z"/><line class="st1" x1="55" x2="55" y1="13" y2="30"/><polygon class="st1" points="56,36 54,36 53,30 57,30    "/><path class="st1" d="M55,36v2l0.5,0.8c0.4,0.5,0.3,1.3-0.2,1.7v0c-0.6,0.5-1.4,0.4-1.9-0.2"/><rect class="st1" height="6" width="20" x="37" y="57"/><rect class="st1" height="6" width="20" x="43" y="51"/></g></g></g></svg>