<?xml version="1.0" ?><!DOCTYPE svg  PUBLIC '-//W3C//DTD SVG 1.1//EN'  'http://www.w3.org/Graphics/SVG/1.1/DTD/svg11.dtd'><svg height="2048px" style="shape-rendering:geometricPrecision; text-rendering:geometricPrecision; image-rendering:optimizeQuality; fill-rule:evenodd; clip-rule:evenodd" viewBox="0 0 2048 2048" width="2048px" xml:space="preserve" xmlns="http://www.w3.org/2000/svg" xmlns:xlink="http://www.w3.org/1999/xlink"><defs><style type="text/css">
   <![CDATA[
    .fil1 {fill:none}
    .fil0 {fill:black;fill-rule:nonzero}
   ]]>
  </style></defs><g id="Layer_x0020_1"><g id="_206322176"><path class="fil0" d="M1495.15 503.615c6.52323,-11.4933 21.1311,-15.5232 32.6244,-9.00001 11.4933,6.52323 15.5232,21.1311 9.00001,32.6244l-102.664 179.891c-6.52323,11.4933 -21.1311,15.5232 -32.6244,9.00001 -1.91693,-1.0878 -3.62481,-2.40118 -5.113,-3.88701l-0.0437008 0.0437008 -163.068 -163.067 -164.417 164.419c-9.37087,9.37087 -24.5669,9.37087 -33.9378,0 -1.21536,-1.21536 -2.27244,-2.5311 -3.17244,-3.91654l-143.617 -179.39c-8.23229,-10.3028 -6.55276,-25.3311 3.75,-33.5634 10.3028,-8.23229 25.3311,-6.55276 33.5634,3.75l128.345 160.312 162.517 -162.519c9.37087,-9.37087 24.5669,-9.37087 33.9378,0l157.857 157.856 87.0627 -152.555z" id="_206322728"/><path class="fil0" d="M1514.39 539.428l-596.452 0 -132.882 158.966 728.496 0 0.838583 -158.966zm-607.619 -48l631.653 0 0 0.0944883 0.0933072 -0.0011811c13.2024,0.0507874 23.8642,10.7976 23.8134,24l-1.08189 204.885c0.0543308,0.655512 0.0826772,1.31811 0.0826772,1.9878 0,13.2543 -10.7457,24 -24,24l-803.567 0 0 -0.0413386c-5.42835,0.00236221 -10.8874,-1.82717 -15.3756,-5.58308 -10.148,-8.49095 -11.491,-23.6032 -3,-33.7512l172.101 -205.883c4.37363,-5.89016 11.3823,-9.70749 19.2815,-9.70749z" id="_206322968"/><path class="fil0" d="M1732.74 482.807l-169.428 0 0 266.244 169.428 0 0 -266.244zm-180.403 -48l191.378 0c10.0724,0 19.2791,4.13504 26.0173,10.8024l0.056693 0.0555119 0.046063 0.0472441 0.0472441 0.046063c6.69922,6.74174 10.8579,15.9732 10.8579,26.074l0 288.194c0,9.13583 -3.37441,17.5323 -8.93859,24.0059 -0.589371,0.750001 -1.22717,1.47165 -1.91811,2.1626 -6.69922,6.69922 -15.9626,10.8567 -26.1685,10.8567l-191.378 0c-10.2059,0 -19.4693,-4.15748 -26.1685,-10.8567 -6.69922,-6.69922 -10.8567,-15.9626 -10.8567,-26.1685l0 -288.194c0,-10.1445 4.16103,-19.376 10.8567,-26.0752l0.0011811 0.0011811 0.0921261 -0.0944883c6.7004,-6.69686 15.9319,-10.8567 26.0752,-10.8567z" id="_206322392"/><path class="fil0" d="M1306.19 746.393l-152.46 0 0 713.216 152.46 0 0 -713.216zm-176.46 -48l200.46 0c13.2543,0 24,10.7457 24,24l0 761.216c0,13.2543 -10.7457,24 -24,24l-200.46 0c-13.2543,0 -24,-10.7457 -24,-24l0 -761.216c0,-13.2543 10.7457,-24 24,-24z" id="_206323088"/><path class="fil0" d="M1483.46 1507.61l-506.998 0 0 57.5835 506.998 0 0 -57.5835zm-530.998 -48l554.998 0c13.2543,0 24,10.7457 24,24l0 105.584c0,13.2543 -10.7457,24 -24,24l-554.998 0c-13.2543,0 -24,-10.7457 -24,-24l0 -105.584c0,-13.2543 10.7457,-24 24,-24z" id="_206322944"/><path class="fil0" d="M821.447 721.99c0,-13.2543 10.7457,-24 24,-24 13.2543,0 24,10.7457 24,24l0 160.399 68.9067 68.902c9.37087,9.37087 9.37087,24.5669 0,33.9378 -9.37087,9.37087 -24.5669,9.37087 -33.9378,0l-58.9689 -58.9654 -58.9701 58.9654c-9.37087,9.37087 -24.5669,9.37087 -33.9378,0 -9.37087,-9.37087 -9.37087,-24.5669 0,-33.9378l68.9079 -68.902 0 -160.399z" id="_206322872"/><path class="fil0" d="M979.671 992.552l-268.449 0c-0.598819,0 -1.10315,0.20315 -1.42795,0.527953l-0.0933072 0.0933072c-0.324803,0.324803 -0.527953,0.829134 -0.527953,1.42913l0 85.7894c0,0.571654 0.217323,1.09016 0.56693,1.46811l0.0141732 0.0141732c0.376772,0.350788 0.895276,0.56693 1.46811,0.56693l268.449 0c0.598819,0 1.10315,-0.20315 1.42795,-0.527953l0.0933072 -0.0933072c0.324803,-0.324803 0.527953,-0.829134 0.527953,-1.42795l0 -85.7894c0,-0.537402 -0.238583,-1.04646 -0.62126,-1.42913l0 -0.0933072c-0.324803,-0.324803 -0.829134,-0.527953 -1.42795,-0.527953zm-268.449 -48l268.449 0c13.7032,0 26.2075,5.64095 35.3185,14.7307l0.0472441 -0.0472441c9.06024,9.06024 14.6835,21.5788 14.6835,35.367l0 85.7894c0,13.6795 -5.62087,26.1662 -14.6835,35.2725l-0.0472441 0.046063 -0.046063 0.0472441c-9.10631,9.06261 -21.5929,14.6835 -35.2725,14.6835l-268.449 0c-13.7268,0 -26.2134,-5.62441 -35.2736,-14.6823l-0.0933072 -0.0933072c-9.05788,-9.06024 -14.6823,-21.5469 -14.6823,-35.2736l0 -85.7894c0,-13.6819 5.62087,-26.1673 14.6835,-35.2736l0.0472441 -0.046063 0.046063 -0.0472441c9.10631,-9.06261 21.5929,-14.6835 35.2725,-14.6835z" id="_206322584"/><polygon class="fil0" id="_206322656" points="655.744,1131.27 655.744,1573.45 655.744,1597.45 631.744,1597.45 268.742,1597.45 268.742,1549.45 607.744,1549.45 607.744,1131.27 "/><polygon class="fil0" id="_206322440" points="485.5,999.339 485.5,1573.45 437.5,1573.45 437.5,999.339 "/><polygon class="fil0" id="_206322344" points="315.257,855.338 315.257,1573.45 267.257,1573.45 267.257,855.338 "/><polygon class="fil0" id="_206323064" points="460.614,1105.29 291.257,1105.29 291.257,1057.29 460.614,1057.29 "/><polygon class="fil0" id="_206322920" points="631.744,1256.96 291.257,1256.96 291.257,1208.96 631.744,1208.96 "/><polygon class="fil0" id="_206322536" points="631.744,1423.84 291.257,1423.84 291.257,1375.84 631.744,1375.84 "/><polygon class="fil0" id="_206322848" points="829.142,905.971 852.914,905.971 876.914,905.971 876.914,929.971 876.914,948.721 876.914,972.721 852.914,972.721 829.142,972.721 805.142,972.721 805.142,948.721 805.142,929.971 805.142,905.971 "/></g></g><rect class="fil1" height="2048" width="2048"/></svg>