<?xml version="1.0" ?><svg data-name="Layer 1" id="Layer_1" viewBox="0 0 100 100" xmlns="http://www.w3.org/2000/svg"><title/><path d="M86,84H14a1,1,0,0,1,0-2H86A1,1,0,0,1,86,84Z"/><path d="M79,83.91H69a1,1,0,0,1-1-1V34.05a1,1,0,0,1,1-1H79a1,1,0,0,1,1,1V82.91A1,1,0,0,1,79,83.91Zm-9-2h8V35.05H70V81.91Z"/><path d="M63,83.91H53a1,1,0,0,1-1-1v-36a1,1,0,0,1,1-1H63a1,1,0,0,1,1,1v36A1,1,0,0,1,63,83.91Zm-9-2h8v-34H54v34Z"/><path d="M47,83.91H37a1,1,0,0,1-1-1V17.05a1,1,0,0,1,1-1H47a1,1,0,0,1,1,1V82.91A1,1,0,0,1,47,83.91Zm-9-2h8V18.05H38V81.91Z"/><path d="M31,83.91H21a1,1,0,0,1-1-1V23.05a1,1,0,0,1,1-1H31a1,1,0,0,1,1,1V82.91A1,1,0,0,1,31,83.91Zm-9-2h8V24.05H22V81.91Z"/><path d="M24,28H21a1,1,0,0,1,0-2h3A1,1,0,0,1,24,28Z"/><path d="M31,32H28a1,1,0,0,1,0-2h3A1,1,0,0,1,31,32Z"/><path d="M24,36H21a1,1,0,0,1,0-2h3A1,1,0,0,1,24,36Z"/><path d="M31,40H28a1,1,0,0,1,0-2h3A1,1,0,0,1,31,40Z"/><path d="M24,44H21a1,1,0,0,1,0-2h3A1,1,0,0,1,24,44Z"/><path d="M31,48H28a1,1,0,0,1,0-2h3A1,1,0,0,1,31,48Z"/><path d="M24,52H21a1,1,0,0,1,0-2h3A1,1,0,0,1,24,52Z"/><path d="M31,56H28a1,1,0,0,1,0-2h3A1,1,0,0,1,31,56Z"/><path d="M24,60H21a1,1,0,0,1,0-2h3A1,1,0,0,1,24,60Z"/><path d="M31,64H28a1,1,0,0,1,0-2h3A1,1,0,0,1,31,64Z"/><path d="M24,68H21a1,1,0,0,1,0-2h3A1,1,0,0,1,24,68Z"/><path d="M31,72H28a1,1,0,0,1,0-2h3A1,1,0,0,1,31,72Z"/><path d="M24,76H21a1,1,0,0,1,0-2h3A1,1,0,0,1,24,76Z"/><path d="M31,80H28a1,1,0,0,1,0-2h3A1,1,0,0,1,31,80Z"/><path d="M56,52H53a1,1,0,0,1,0-2h3A1,1,0,0,1,56,52Z"/><path d="M63,56H60a1,1,0,0,1,0-2h3A1,1,0,0,1,63,56Z"/><path d="M56,60H53a1,1,0,0,1,0-2h3A1,1,0,0,1,56,60Z"/><path d="M63,64H60a1,1,0,0,1,0-2h3A1,1,0,0,1,63,64Z"/><path d="M56,68H53a1,1,0,0,1,0-2h3A1,1,0,0,1,56,68Z"/><path d="M63,72H60a1,1,0,0,1,0-2h3A1,1,0,0,1,63,72Z"/><path d="M56,76H53a1,1,0,0,1,0-2h3A1,1,0,0,1,56,76Z"/><path d="M63,80H60a1,1,0,0,1,0-2h3A1,1,0,0,1,63,80Z"/></svg>