<?xml version="1.0" encoding="UTF-8" standalone="no"?>
<svg
   xmlns:dc="http://purl.org/dc/elements/1.1/"
   xmlns:cc="http://creativecommons.org/ns#"
   xmlns:rdf="http://www.w3.org/1999/02/22-rdf-syntax-ns#"
   xmlns:svg="http://www.w3.org/2000/svg"
   xmlns="http://www.w3.org/2000/svg"
   xmlns:sodipodi="http://sodipodi.sourceforge.net/DTD/sodipodi-0.dtd"
   xmlns:inkscape="http://www.inkscape.org/namespaces/inkscape"
   enable-background="new 0 0 512 512"
   height="512px"
   id="Layer_1"
   version="1.1"
   viewBox="0 0 512 512"
   width="512px"
   xml:space="preserve"
   sodipodi:docname="user_settings.svg"
   inkscape:version="0.92.4 (5da689c313, 2019-01-14)"><metadata
     id="metadata25"><rdf:RDF><cc:Work
         rdf:about=""><dc:format>image/svg+xml</dc:format><dc:type
           rdf:resource="http://purl.org/dc/dcmitype/StillImage" /></cc:Work></rdf:RDF></metadata><defs
     id="defs23" /><sodipodi:namedview
     pagecolor="#ffffff"
     bordercolor="#666666"
     borderopacity="1"
     objecttolerance="10"
     gridtolerance="10"
     guidetolerance="10"
     inkscape:pageopacity="0"
     inkscape:pageshadow="2"
     inkscape:window-width="1920"
     inkscape:window-height="1027"
     id="namedview21"
     showgrid="false"
     inkscape:zoom="1.6503906"
     inkscape:cx="151.17633"
     inkscape:cy="256"
     inkscape:window-x="-8"
     inkscape:window-y="-8"
     inkscape:window-maximized="1"
     inkscape:current-layer="Layer_1" /><path
     d="M433.797,256.391c0-3.675-0.125-7.32-0.346-10.939l42.932-31.358c-5.813-30.416-17.766-58.65-34.539-83.355l-52.523,8.181  c-4.836-5.466-10-10.631-15.467-15.465l8.182-52.523c-24.703-16.771-52.938-28.722-83.355-34.534L267.32,79.327  c-3.617-0.22-7.26-0.345-10.932-0.345c-3.673,0-7.315,0.125-10.934,0.346l-31.361-42.933c-30.415,5.813-58.651,17.765-83.356,34.535  l8.182,52.528c-5.464,4.833-10.628,9.996-15.46,15.46l-52.529-8.182c-16.771,24.705-28.723,52.939-34.536,83.354l42.933,31.36  c-0.221,3.619-0.346,7.264-0.346,10.938c0,3.672,0.125,7.314,0.345,10.932l-42.933,31.361c5.813,30.416,17.764,58.65,34.534,83.355  l52.526-8.18c4.834,5.465,9.999,10.631,15.465,15.465l-8.181,52.525c24.705,16.771,52.939,28.723,83.354,34.535l31.358-42.93  c3.619,0.221,7.264,0.346,10.938,0.346c3.674,0,7.318-0.125,10.936-0.346l31.359,42.93c30.414-5.813,58.648-17.764,83.352-34.533  l-8.182-52.521c5.469-4.836,10.637-10.002,15.471-15.471l52.523,8.18c16.773-24.705,28.723-52.939,34.535-83.355l-42.932-31.361  C433.672,263.705,433.797,260.063,433.797,256.391z M256.001,352c-53.019,0-96-42.979-96-96c0-53.019,42.981-96,96-96  C309.023,160,352,202.981,352,256C352,309.021,309.023,352,256.001,352z"
     id="path18"
     style="fill:#ffffff;fill-opacity:1" /></svg>