<?xml version="1.0" ?><!DOCTYPE svg  PUBLIC '-//W3C//DTD SVG 1.0//EN'  'http://www.w3.org/TR/2001/REC-SVG-20010904/DTD/svg10.dtd'><svg enable-background="new 0 0 16 16" height="100px" id="Layer_1" version="1.0" viewBox="0 0 16 16" width="100px" xml:space="preserve" xmlns="http://www.w3.org/2000/svg" xmlns:xlink="http://www.w3.org/1999/xlink"><g><defs><rect height="16" id="SVGID_1_" width="16"/></defs><path d="M8.001,0c-4.418,0-8,3.581-8,8c0,2.049,0.776,3.911,2.043,5.327   C3.508,14.964,5.632,16,8.001,16c2.397,0,4.544-1.061,6.011-2.732C15.246,11.859,16,10.02,16,8C16,3.582,12.418,0,8.001,0    M13.59,12.195c-0.516-0.424-1.529-0.741-2.543-1.164c-1.207-0.502-1.49-0.678-1.49-0.678L9.545,9.196c0,0,0.449-0.347,0.592-1.438   c0.281,0.083,0.578-0.42,0.596-0.685c0.014-0.255-0.039-0.965-0.385-0.895c0.07-0.533,0.121-1.013,0.096-1.267   C10.355,3.98,9.439,3,8.03,3C6.625,3,5.707,3.98,5.617,4.911C5.593,5.166,5.643,5.646,5.714,6.178   c-0.346-0.07-0.4,0.64-0.383,0.895c0.015,0.265,0.311,0.768,0.594,0.685c0.14,1.091,0.592,1.438,0.592,1.438l-0.011,1.157   c0,0-0.286,0.176-1.491,0.678c-1.038,0.433-2.079,0.754-2.583,1.193C1.538,11.049,1.001,9.588,1.001,8c0-3.86,3.14-7,7-7   C11.859,1,15,4.14,15,8C15,9.574,14.471,11.023,13.59,12.195" fill="#1D1D1B"/></g></svg>